<svg width="19" height="20" viewBox="0 0 19 20" fill="none" xmlns="http://www.w3.org/2000/svg">
<path d="M16.7716 10.6667H1.33329C1.14351 10.6667 0.984959 10.603 0.857626 10.4757C0.730293 10.3483 0.666626 10.1898 0.666626 9.99999C0.666626 9.81022 0.730293 9.65166 0.857626 9.52433C0.984959 9.39699 1.14351 9.33333 1.33329 9.33333H16.7716L9.52063 2.08199C9.39063 1.95222 9.32263 1.79922 9.31663 1.62299C9.31063 1.44699 9.38118 1.28544 9.52829 1.13833C9.67518 0.996549 9.8324 0.924327 9.99996 0.92166C10.1675 0.919216 10.3247 0.991438 10.4716 1.13833L18.5793 9.24599C18.6957 9.36244 18.7774 9.48133 18.8243 9.60266C18.8714 9.72399 18.895 9.85644 18.895 9.99999C18.895 10.1435 18.8714 10.276 18.8243 10.3973C18.7774 10.5187 18.6957 10.6375 18.5793 10.754L10.4716 18.8617C10.347 18.9863 10.1953 19.053 10.0166 19.0617C9.83796 19.0701 9.67518 19.0034 9.52829 18.8617C9.38118 18.7146 9.30763 18.556 9.30763 18.386C9.30763 18.2158 9.38118 18.0572 9.52829 17.9103L16.7716 10.6667Z" fill="white"/>
</svg>
