<svg width="21" height="24" viewBox="0 0 21 24" fill="none" xmlns="http://www.w3.org/2000/svg">
<path d="M0.00184991 0.00422903C0.00184991 0.0972677 -0.00231239 0.160703 0.00184991 0.224138C0.160017 1.98341 0.318185 3.74269 0.47219 5.5062C0.68863 8.00132 0.900907 10.4964 1.11735 12.9873C1.36292 15.787 1.61266 18.5824 1.84991 21.382C1.86656 21.585 1.93732 21.6738 2.12462 21.7245C4.7885 22.4688 7.44405 23.2174 10.1079 23.9574C10.2869 24.0082 10.5033 24.0167 10.6823 23.9659C13.3545 23.2216 16.0226 22.4646 18.6947 21.7161C18.8987 21.6569 18.9695 21.5638 18.9861 21.3524C19.0694 20.2951 19.1693 19.2336 19.2608 18.1764C19.4148 16.4255 19.5647 14.6747 19.7187 12.9239C19.8977 10.8686 20.0808 8.81752 20.2598 6.76222C20.393 5.23131 20.5345 3.70463 20.6677 2.17372C20.7301 1.45479 20.7842 0.735851 20.8425 0H0.00184991V0.00422903ZM16.8217 6.11095C16.6844 7.65877 16.547 9.21082 16.4096 10.7586C16.2515 12.5391 16.0933 14.3195 15.9351 16.0957C15.8894 16.6074 15.8228 17.1191 15.8103 17.635C15.8019 17.9099 15.6854 17.9818 15.4606 18.0453C13.854 18.4851 12.2515 18.9376 10.649 19.3859C10.5783 19.407 10.5117 19.4324 10.4409 19.4535C10.4159 19.4408 10.391 19.4324 10.3618 19.4197C8.64695 18.946 6.93208 18.4682 5.21722 17.9861C5.14646 17.9649 5.05488 17.8507 5.04656 17.7704C4.92585 16.4509 4.81763 15.1315 4.70109 13.7866H7.31918C7.36496 14.3153 7.41491 14.8523 7.45653 15.3937C7.494 15.8927 7.48983 15.8927 7.95185 16.0196C8.78015 16.2437 9.61261 16.4636 10.4409 16.6835L10.4326 16.6624C11.34 16.4171 12.2473 16.176 13.1547 15.9138C13.238 15.8885 13.3337 15.7531 13.3462 15.6601C13.4003 15.2541 13.4294 14.8439 13.4627 14.4379C13.5168 13.7824 13.571 13.1269 13.6292 12.4418H10.4326L10.4409 12.4249C10.4201 12.4249 10.3951 12.4249 10.3743 12.4249H4.58038C4.5013 11.5495 4.42638 10.6825 4.34729 9.7902H10.3785C10.3993 9.7902 10.4243 9.7902 10.4451 9.7902L10.4367 9.77328H13.8623C13.9414 8.86404 14.0205 7.97595 14.0996 7.07094H10.4326L10.4409 7.05402C10.4201 7.05402 10.3951 7.05402 10.3743 7.05402C8.32229 7.05825 6.27028 7.05825 4.21826 7.06248C4.18913 7.06248 4.15999 7.04979 4.10588 7.03287C4.03096 6.17015 3.95187 5.30743 3.87695 4.41933H10.3743C10.3951 4.41933 10.4201 4.41933 10.4409 4.41933L10.4326 4.40242H16.9591C16.9133 4.99448 16.8675 5.55271 16.8217 6.11095Z" fill="#3DCFB6"/>
</svg>
