<svg width="50" height="56" viewBox="0 0 50 56" fill="none" xmlns="http://www.w3.org/2000/svg">
<path d="M0.00438936 0.00986773C0.00438936 0.226958 -0.00548671 0.374974 0.00438936 0.52299C0.37968 4.62797 0.754971 8.73294 1.12039 12.8478C1.63394 18.6698 2.13762 24.4917 2.65118 30.3038C3.23386 36.8362 3.82643 43.3588 4.38937 49.8913C4.42887 50.3649 4.59676 50.5721 5.04119 50.6905C11.3619 52.4273 17.6628 54.1739 23.9835 55.9007C24.4082 56.0191 24.9217 56.0388 25.3464 55.9204C31.6868 54.1837 38.0174 52.4174 44.3578 50.6708C44.8418 50.5327 45.0096 50.3156 45.0491 49.8222C45.2467 47.3553 45.4837 44.8785 45.701 42.4115C46.0664 38.3263 46.4219 34.241 46.7873 30.1558C47.212 25.3601 47.6466 20.5742 48.0712 15.7785C48.3873 12.2064 48.723 8.64413 49.0391 5.07201C49.1872 3.3945 49.3156 1.71699 49.4539 0H0.00438936V0.00986773ZM39.9136 14.2589C39.5877 17.8705 39.2618 21.4919 38.9359 25.1035C38.5606 29.2578 38.1853 33.4121 37.81 37.5566C37.7014 38.7506 37.5433 39.9446 37.5137 41.1484C37.494 41.7898 37.2174 41.9576 36.6841 42.1056C32.872 43.1319 29.0697 44.1877 25.2674 45.2337C25.0995 45.283 24.9415 45.3422 24.7736 45.3916C24.7143 45.362 24.6551 45.3422 24.5859 45.3126C20.517 44.2074 16.448 43.0924 12.3791 41.9675C12.2112 41.9181 11.9939 41.6517 11.9742 41.4642C11.6878 38.3855 11.431 35.3067 11.1545 32.1688H17.3665C17.4752 33.4023 17.5937 34.6555 17.6924 35.9185C17.7813 37.0829 17.7714 37.0829 18.8677 37.379C20.833 37.902 22.8082 38.4151 24.7736 38.9282L24.7538 38.8789C26.9068 38.3065 29.0598 37.7441 31.2128 37.1323C31.4103 37.0731 31.6374 36.7573 31.6671 36.5402C31.7955 35.5929 31.8646 34.6357 31.9436 33.6884C32.072 32.1589 32.2004 30.6294 32.3386 29.0309H24.7538L24.7736 28.9914C24.7242 28.9914 24.6649 28.9914 24.6156 28.9914H10.8681C10.6804 26.9488 10.5027 24.9259 10.315 22.8438H24.6254C24.6748 22.8438 24.7341 22.8438 24.7835 22.8438L24.7637 22.8043H32.8917C33.0793 20.6828 33.267 18.6105 33.4546 16.4988H24.7538L24.7736 16.4594C24.7242 16.4594 24.6649 16.4594 24.6156 16.4594C19.7467 16.4692 14.8778 16.4692 10.0088 16.4791C9.93972 16.4791 9.87058 16.4495 9.7422 16.41C9.56443 14.397 9.37678 12.384 9.19901 10.3118H24.6156C24.6649 10.3118 24.7242 10.3118 24.7736 10.3118L24.7538 10.2723H40.2395C40.1309 11.6538 40.0222 12.9563 39.9136 14.2589Z" fill="white"/>
</svg>
