<svg width="60" height="60" viewBox="0 0 60 60" fill="none" xmlns="http://www.w3.org/2000/svg">
<path d="M33.9459 21.0799V23.2121H25.4965V21.0799C25.4965 18.7496 27.3925 16.8547 29.7217 16.8547C32.0509 16.8547 33.9459 18.7496 33.9459 21.0799ZM52.4424 10.1892L52.3891 29.0395C52.3891 29.0395 51.3235 38.8766 44.6254 46.8155C39.0865 53.3786 30.7797 57.471 29.7718 57.9521V58C29.7718 58 29.7544 57.9924 29.7217 57.9761C29.688 57.9924 29.6706 58 29.6706 58V57.9521C28.6627 57.471 20.3559 53.3786 14.8181 46.8155C8.11889 38.8766 7.05442 29.0395 7.05442 29.0395L7 10.1892L29.6706 2.03592V2L29.7217 2.01741L29.7718 2V2.03592L52.4424 10.1892ZM39.5175 26.1715C39.5175 24.5378 38.1918 23.2121 36.5581 23.2121H35.6873V21.0799C35.6873 17.7896 33.0109 15.1132 29.7217 15.1132C26.4326 15.1132 23.7551 17.7896 23.7551 21.0799V23.2121H22.8854C21.2506 23.2121 19.926 24.5378 19.926 26.1715V37.5737C19.926 39.2074 21.2506 40.5331 22.8854 40.5331H36.5581C38.1918 40.5331 39.5175 39.2074 39.5175 37.5737V26.1715Z" fill="white"/>
</svg>
