<svg width="24" height="24" viewBox="0 0 24 24" fill="none" xmlns="http://www.w3.org/2000/svg">
<path d="M3 19.3376L5.95682 0.460691C6.00231 0.187771 6.27525 -0.0396618 6.54818 0.00582481C6.73014 0.0513114 6.86661 0.142285 6.95759 0.278744L10.0054 6.01005L11.2336 3.69024C11.3701 3.41732 11.6885 3.32634 11.9614 3.4628C12.0524 3.50829 12.1434 3.59926 12.1889 3.69024L20.4225 19.3831H3V19.3376Z" fill="#3DCFB6" fill-opacity="0.5"/>
<path d="M13.1897 12.0142L10.0054 6.01001L3 19.3376L13.1897 12.0142Z" fill="#3DCFB6" fill-opacity="0.5"/>
<path d="M20.4225 19.3376L18.148 5.32775C18.1025 5.00934 17.8296 4.8274 17.5112 4.87288C17.4202 4.87288 17.2837 4.96386 17.1927 5.00934L3 19.3376L10.9152 23.7953C11.4156 24.0682 12.0069 24.0682 12.5073 23.7953L20.4225 19.3376Z" fill="#3DCFB6"/>
</svg>
