<svg width="56" height="56" viewBox="0 0 56 56" fill="none" xmlns="http://www.w3.org/2000/svg">
<path d="M54.9494 25.5334L30.4666 1.05057C29.0658 -0.35019 26.7515 -0.35019 25.3507 1.05057L20.2958 6.10549L26.7515 12.5612C28.2741 12.074 29.9793 12.3785 31.1365 13.5965C32.3545 14.8146 32.6591 16.5198 32.1718 18.0424L38.3839 24.2545C39.9065 23.7673 41.6118 24.0718 42.8298 25.2898C44.5351 26.9342 44.5351 29.6748 42.8298 31.3801C41.1245 33.0854 38.4448 33.0854 36.7395 31.3801C35.4606 30.1011 35.1561 28.2741 35.826 26.6906L30.0402 20.9048V36.1305C30.4666 36.3132 30.832 36.6177 31.1974 36.9222C32.9027 38.5666 32.9027 41.3072 31.1974 43.0125C29.4921 44.6569 26.8124 44.6569 25.1071 43.0125C23.4019 41.3072 23.4019 38.6275 25.1071 36.9222C25.5334 36.4959 26.0207 36.1914 26.5079 36.0087V20.6003C26.0207 20.4176 25.5334 20.0522 25.1071 19.6868C23.8282 18.4078 23.5237 16.5808 24.1936 14.9973L17.7988 8.6634L1.05057 25.4116C-0.35019 26.8124 -0.35019 29.1267 1.05057 30.5275L25.4725 54.9494C26.8733 56.3502 29.1876 56.3502 30.5884 54.9494L54.8885 30.6493C56.3502 29.1876 56.3502 26.9342 54.9494 25.5334Z" fill="white"/>
</svg>
