<svg width="24" height="24" viewBox="0 0 24 24" fill="none" xmlns="http://www.w3.org/2000/svg">
<path d="M0 0C8.0054 0 15.9946 0 24 0C24 8.0054 24 16.0108 24 24C16.0108 24 8.0054 24 0 24C0 15.9784 0 7.9892 0 0ZM21.472 12.7049C20.9858 11.8298 20.3214 11.2302 19.3653 11.0196C18.6847 10.8575 18.0041 10.8575 17.3234 11.0034C15.1195 11.4571 14.1796 14.1148 15.6057 15.8812C16.108 16.497 16.7725 16.8697 17.4693 17.1938C18.0851 17.4855 18.7171 17.761 19.3329 18.0689C19.7542 18.2795 19.9325 18.6685 19.8839 19.1384C19.8352 19.6084 19.5111 19.8677 19.106 20.0135C18.1985 20.3376 17.1452 20.0459 16.5294 19.2843C16.3997 19.1222 16.2701 18.944 16.1404 18.7657C15.5246 19.1222 14.9251 19.4625 14.3255 19.819C14.6982 20.5483 15.2167 21.1317 15.9298 21.5206C17.1452 22.185 18.4254 22.2822 19.738 21.9581C20.5969 21.7475 21.3261 21.3099 21.7799 20.5159C22.6226 19.0088 22.1364 17.129 20.6455 16.2053C19.9811 15.8001 19.2357 15.5246 18.5388 15.1681C18.1985 14.9899 17.842 14.8278 17.5503 14.6009C17.0317 14.1796 17.129 13.3369 17.7124 13.0128C18.2795 12.6887 19.0736 12.8832 19.5111 13.4504C19.6084 13.5638 19.6732 13.6934 19.7704 13.8231C20.3214 13.4504 20.8886 13.0777 21.472 12.7049ZM6.32005 20.0621C6.64416 20.7589 7.11411 21.3099 7.77853 21.6664C8.63741 22.1364 9.57731 22.2174 10.5334 22.0716C11.3923 21.9419 12.1053 21.553 12.5753 20.7752C12.9642 20.1269 13.0777 19.4139 13.0777 18.6523C13.0777 16.1891 13.0777 13.7259 13.0777 11.2627C13.0777 11.1978 13.0777 11.1168 13.0777 11.0358C12.316 11.0358 11.5868 11.0358 10.8251 11.0358C10.8251 11.133 10.8251 11.214 10.8251 11.3113C10.8251 13.7421 10.8251 16.1567 10.8251 18.5874C10.8251 18.8143 10.8089 19.0574 10.7765 19.2843C10.7117 19.657 10.5172 19.9325 10.1445 20.0459C9.44767 20.2566 8.88049 20.0459 8.47536 19.4463C8.37812 19.2843 8.28089 19.1222 8.16745 18.9602C7.53545 19.3329 6.93585 19.6894 6.32005 20.0621Z" fill="#3DCFB6"/>
</svg>
