<svg width="56" height="56" viewBox="0 0 56 56" fill="none" xmlns="http://www.w3.org/2000/svg">
<path d="M0 0C18.6793 0 37.3207 0 56 0C56 18.6793 56 37.3585 56 56C37.3585 56 18.6793 56 0 56C0 37.2829 0 18.6415 0 0ZM50.1013 29.6448C48.9669 27.603 47.4166 26.2039 45.1857 25.7124C43.5976 25.3342 42.0094 25.3342 40.4213 25.6745C35.2789 26.7333 33.0858 32.9345 36.4132 37.056C37.5854 38.4929 39.1357 39.3626 40.7616 40.1188C42.1985 40.7995 43.6732 41.4423 45.1101 42.1607C46.0932 42.6523 46.5091 43.5598 46.3957 44.6563C46.2822 45.7529 45.526 46.3579 44.5807 46.6982C42.4632 47.4544 40.0054 46.7738 38.5685 44.9966C38.266 44.6185 37.9635 44.2026 37.661 43.7866C36.2242 44.6185 34.8251 45.4126 33.4261 46.2444C34.2957 47.946 35.5057 49.3072 37.1695 50.2147C40.0054 51.765 42.9926 51.9919 46.0554 51.2356C48.0594 50.7441 49.761 49.7232 50.8197 47.8704C52.7859 44.3538 51.6516 39.9676 48.1729 37.8123C46.6225 36.867 44.8832 36.2242 43.2573 35.3923C42.4632 34.9764 41.6313 34.5982 40.9507 34.0689C39.7407 33.0858 39.9676 31.1195 41.3288 30.3633C42.6523 29.607 44.5051 30.0608 45.526 31.3842C45.7529 31.6489 45.9041 31.9514 46.131 32.2539C47.4166 31.3842 48.74 30.5145 50.1013 29.6448ZM14.7468 46.8116C15.503 48.4375 16.5996 49.7232 18.1499 50.555C20.1539 51.6516 22.3471 51.8406 24.578 51.5003C26.582 51.1978 28.2458 50.2903 29.3423 48.4753C30.2498 46.9629 30.5145 45.2991 30.5145 43.5219C30.5145 37.7745 30.5145 32.027 30.5145 26.2795C30.5145 26.1283 30.5145 25.9392 30.5145 25.7502C28.7373 25.7502 27.0358 25.7502 25.2586 25.7502C25.2586 25.977 25.2586 26.1661 25.2586 26.393C25.2586 32.0648 25.2586 37.6988 25.2586 43.3707C25.2586 43.9001 25.2208 44.4673 25.1452 44.9966C24.9939 45.8663 24.5402 46.5091 23.6705 46.7738C22.0446 47.2654 20.7211 46.7738 19.7758 45.3747C19.549 44.9966 19.3221 44.6185 19.0574 44.2404C17.5827 45.1101 16.1837 45.9419 14.7468 46.8116Z" fill="white"/>
</svg>
