<svg width="23" height="27" viewBox="0 0 23 27" fill="none" xmlns="http://www.w3.org/2000/svg">
<path d="M11.3439 26.5879C11.081 26.5879 10.8199 26.5434 10.5605 26.4545C10.3014 26.3656 10.0719 26.2249 9.87186 26.0322C8.76808 25.0249 7.66808 23.9434 6.57186 22.7879C5.47542 21.6323 4.49208 20.4341 3.62186 19.1932C2.75142 17.9525 2.04397 16.6896 1.49953 15.4045C0.955084 14.1192 0.682861 12.8506 0.682861 11.5989C0.682861 8.26553 1.75508 5.60997 3.89953 3.63219C6.04397 1.65442 8.52731 0.665527 11.3495 0.665527C14.1718 0.665527 16.6551 1.65442 18.7995 3.63219C20.944 5.60997 22.0162 8.26553 22.0162 11.5989C22.0162 12.8506 21.744 14.1192 21.1995 15.4045C20.6551 16.6896 19.9476 17.9525 19.0772 19.1932C18.207 20.4341 17.2236 21.6323 16.1272 22.7879C15.031 23.9434 13.931 25.0249 12.8272 26.0322C12.6272 26.2249 12.3958 26.3656 12.1329 26.4545C11.87 26.5434 11.607 26.5879 11.3439 26.5879ZM11.3515 13.7765C12.0242 13.7765 12.5994 13.537 13.0772 13.0579C13.555 12.579 13.7939 12.0031 13.7939 11.3302C13.7939 10.6575 13.5543 10.0823 13.0752 9.60453C12.5963 9.12675 12.0204 8.88786 11.3475 8.88786C10.6749 8.88786 10.0996 9.12742 9.62186 9.60653C9.14408 10.0854 8.9052 10.6613 8.9052 11.3342C8.9052 12.0069 9.14475 12.5821 9.62386 13.0599C10.1028 13.5376 10.6786 13.7765 11.3515 13.7765Z" fill="#3DCFB6"/>
</svg>
