<svg width="60" height="60" viewBox="0 0 60 60" fill="none" xmlns="http://www.w3.org/2000/svg">
<g clip-path="url(#clip0_3296_3853)">
<path d="M9.37333 11.1466V48.9466C4.8 43.9066 2 37.2799 2 29.9999C2 22.7199 4.8 16.0933 9.37333 11.1466Z" fill="white"/>
<path d="M12.3599 15.2533L28.5065 47.64H12.3599V15.2533Z" fill="white"/>
<path d="M30 44L14.1333 12.36H45.8666L30 44Z" fill="white"/>
<path d="M29.9998 2C37.2798 2 43.9065 4.8 48.8532 9.37333H11.1465C16.0932 4.8 22.7198 2 29.9998 2Z" fill="white"/>
<path d="M47.6398 47.64H31.4932L47.6398 15.2533V47.64Z" fill="white"/>
<path d="M48.8532 50.6267C43.9065 55.2 37.2798 58 29.9998 58C22.7198 58 16.0932 55.2 11.1465 50.6267H48.8532Z" fill="white"/>
<path d="M50.6265 48.8533V11.1466C55.1998 16.0933 57.9998 22.7199 57.9998 29.9999C57.9998 37.2799 55.1998 43.9066 50.6265 48.8533Z" fill="white"/>
<path d="M12.3599 15.2533L28.5065 47.64H12.3599V15.2533Z" fill="white"/>
<path d="M30 44L14.1333 12.36H45.8666L30 44Z" fill="white"/>
<path d="M31.4932 47.64L47.6398 15.2533V47.64H31.4932Z" fill="white"/>
<path d="M14.1333 12.36H45.8666L30 44L14.1333 12.36Z" fill="white"/>
</g>
<defs>
<clipPath id="clip0_3296_3853">
<rect width="56" height="56" fill="white" transform="translate(2 2)"/>
</clipPath>
</defs>
</svg>
