<svg width="29" height="28" viewBox="0 0 29 28" fill="none" xmlns="http://www.w3.org/2000/svg">
<path d="M12.9266 15.3559L10.6599 13.0336C10.4453 12.804 10.1805 12.6893 9.86561 12.6893C9.55072 12.6893 9.27483 12.8004 9.03794 13.0226C8.80817 13.2521 8.69328 13.5261 8.69328 13.8446C8.69328 14.1633 8.80817 14.4374 9.03794 14.6669L12.1489 17.7559C12.3712 17.9781 12.6304 18.0893 12.9266 18.0893C13.2231 18.0893 13.4824 17.9781 13.7046 17.7559L19.6599 11.8226C19.8822 11.6004 19.9915 11.3337 19.9879 11.0226C19.9842 10.7115 19.8675 10.4448 19.6379 10.2226C19.4157 10.015 19.1508 9.91314 18.8433 9.91692C18.5359 9.9207 18.2786 10.0263 18.0713 10.2336L12.9266 15.3559ZM9.34894 27.1336L7.32661 23.6893L3.34894 22.8669C3.07494 22.8151 2.84906 22.6688 2.67128 22.4279C2.4935 22.1873 2.42683 21.9299 2.47128 21.6559L2.90461 17.7336L0.315611 14.7336C0.122945 14.5336 0.0266113 14.2891 0.0266113 14.0003C0.0266113 13.7114 0.122945 13.4669 0.315611 13.2669L2.90461 10.2893L2.47128 6.36692C2.42683 6.09292 2.4935 5.83548 2.67128 5.59459C2.84906 5.35392 3.07494 5.2077 3.34894 5.15592L7.32661 4.33359L9.34894 0.866922C9.49717 0.622478 9.70461 0.453923 9.97128 0.361256C10.2379 0.268811 10.5046 0.281811 10.7713 0.400255L14.3489 2.02259L17.9266 0.400255C18.1933 0.281811 18.4599 0.265144 18.7266 0.350255C18.9933 0.435366 19.2007 0.600145 19.3489 0.844589L21.3933 4.33359L25.3489 5.15592C25.6229 5.2077 25.8488 5.35392 26.0266 5.59459C26.2044 5.83548 26.2711 6.09292 26.2266 6.36692L25.7933 10.2893L28.3823 13.2669C28.5749 13.4669 28.6713 13.7114 28.6713 14.0003C28.6713 14.2891 28.5749 14.5336 28.3823 14.7336L25.7933 17.7336L26.2266 21.6559C26.2711 21.9299 26.2044 22.1873 26.0266 22.4279C25.8488 22.6688 25.6229 22.8151 25.3489 22.8669L21.3933 23.6893L19.3489 27.1559C19.2007 27.4004 18.9933 27.5651 18.7266 27.6503C18.4599 27.7354 18.1933 27.7187 17.9266 27.6003L14.3489 25.9779L10.7713 27.6003C10.5046 27.7187 10.2379 27.7317 9.97128 27.6393C9.70461 27.5466 9.49717 27.378 9.34894 27.1336Z" fill="#3DCFB6"/>
</svg>
