<svg width="33" height="32" viewBox="0 0 33 32" fill="none" xmlns="http://www.w3.org/2000/svg">
<g clip-path="url(#clip0_3296_3805)">
<path d="M16.493 18.4445C18.0676 18.4445 19.344 17.1675 19.344 15.5923C19.344 14.0171 18.0676 12.7401 16.493 12.7401C14.9185 12.7401 13.6421 14.0171 13.6421 15.5923C13.6421 17.1675 14.9185 18.4445 16.493 18.4445Z" fill="#61DAFB"/>
<path d="M32.4861 15.5922C32.4861 13.3522 29.8577 11.4044 25.769 10.2357C26.7981 6.10352 26.4365 2.84787 24.4896 1.73483C22.5426 0.60787 19.5526 1.92961 16.493 4.87917C13.4335 1.9157 10.4435 0.60787 8.49652 1.73483C6.88331 2.667 6.28531 5.03222 6.82768 8.39917C6.92503 8.99744 7.0641 9.60961 7.21708 10.2496C3.12842 11.4183 0.5 13.3661 0.5 15.6061C0.5 17.8461 3.12842 19.78 7.21708 20.9627C7.0641 21.5887 6.92503 22.2148 6.82768 22.8131C6.28531 26.18 6.88331 28.5453 8.49652 29.4774C8.96936 29.7557 9.51173 29.8948 10.1097 29.8948C11.5282 29.8948 13.2388 29.1157 15.1023 27.5992C15.5613 27.2235 16.0341 26.7922 16.493 26.347C16.952 26.7922 17.4248 27.2235 17.8837 27.5992C19.7473 29.1157 21.4578 29.8948 22.8764 29.8948C23.4744 29.8948 24.0167 29.7557 24.4896 29.4774C26.1028 28.5453 26.7008 26.18 26.1723 22.8131C26.075 22.2148 25.9359 21.6027 25.7829 20.9627C29.8716 19.794 32.5 17.8461 32.5 15.6061L32.4861 15.5922ZM23.7942 2.93135C25.0458 3.65483 25.324 6.2983 24.42 9.88787C23.1128 9.58178 21.6804 9.35917 20.1645 9.22004C19.2884 7.98178 18.3705 6.85483 17.4665 5.867C19.5804 3.82178 21.5413 2.70874 22.8903 2.70874C23.2379 2.70874 23.5439 2.7783 23.8081 2.93135H23.7942ZM20.9572 18.1661C20.4565 19.0148 19.942 19.8496 19.4135 20.6287C18.4817 20.6983 17.5083 20.74 16.507 20.74C15.5056 20.74 14.5322 20.6983 13.6004 20.6287C13.0719 19.8496 12.5435 19.0148 12.0567 18.1661C11.5561 17.3035 11.111 16.4548 10.6938 15.5922C11.111 14.7296 11.5561 13.8809 12.0567 13.0183C12.5574 12.1418 13.0858 11.3209 13.6004 10.5557C14.5322 10.4861 15.5056 10.4444 16.507 10.4444C17.5083 10.4444 18.4817 10.4861 19.4135 10.5557C19.942 11.3209 20.4565 12.1418 20.9572 13.0183C21.4439 13.867 21.9029 14.7296 22.3201 15.5922C21.9168 16.4409 21.4718 17.2896 20.9572 18.1661ZM23.0432 17.22C23.4326 18.1522 23.7664 19.0566 24.0445 19.947C23.1545 20.1418 22.1949 20.3227 21.1797 20.4479C21.5135 19.9331 21.8333 19.4044 22.1532 18.8618C22.4731 18.3192 22.7651 17.7627 23.0432 17.22ZM16.493 24.3157C15.8672 23.634 15.2414 22.8827 14.6295 22.0757C15.2414 22.1035 15.8533 22.1174 16.493 22.1174C17.1328 22.1174 17.7447 22.1035 18.3566 22.0757C17.7447 22.8827 17.1189 23.62 16.493 24.3157ZM11.8064 20.4479C10.7912 20.3227 9.83159 20.1557 8.94155 19.947C9.21969 19.0566 9.55345 18.1522 9.94285 17.22C10.221 17.7627 10.513 18.3192 10.8329 18.8618C11.1528 19.4044 11.4726 19.9331 11.8064 20.4479ZM9.94285 13.9505C9.55345 13.0183 9.21969 12.114 8.94155 11.2235C9.83159 11.0287 10.7912 10.8479 11.8064 10.7227C11.4726 11.2374 11.1528 11.7661 10.8329 12.3087C10.513 12.8513 10.221 13.394 9.94285 13.9505ZM16.493 6.85483C17.105 7.52265 17.7308 8.27396 18.3566 9.09483C17.7447 9.067 17.1328 9.05309 16.493 9.05309C15.8533 9.05309 15.2414 9.067 14.6295 9.09483C15.2553 8.27396 15.8672 7.52265 16.493 6.85483ZM22.1532 12.3227C21.8333 11.78 21.5135 11.2513 21.1797 10.7366C22.1949 10.8618 23.1545 11.0287 24.0445 11.2374C23.7803 12.114 23.4465 13.0183 23.0432 13.9644C22.7651 13.4218 22.4591 12.8653 22.1532 12.3227ZM8.19057 8.17657C7.75945 5.46352 8.12103 3.55744 9.19187 2.94526C9.45611 2.79222 9.76206 2.72265 10.1097 2.72265C11.4587 2.72265 13.4196 3.8357 15.5335 5.88091C14.6156 6.86874 13.7116 7.9957 12.8355 9.23396C11.3196 9.37309 9.88722 9.5957 8.57996 9.90178C8.42699 9.31743 8.30183 8.73309 8.21838 8.19048L8.19057 8.17657ZM1.8907 15.5922C1.8907 14.1453 4.03238 12.587 7.59257 11.5713C7.99587 12.8653 8.52434 14.2148 9.15015 15.5922C8.52434 16.9557 7.99587 18.3053 7.59257 19.6131C4.04628 18.5974 1.8907 17.0531 1.8907 15.5922ZM14.2262 26.4861C12.0984 28.2113 10.2627 28.8514 9.19187 28.2392C8.12103 27.627 7.75945 25.707 8.19057 23.0079C8.27401 22.4513 8.41308 21.8809 8.55215 21.2966C9.85941 21.6027 11.2918 21.8253 12.8077 21.9644C13.6838 23.1887 14.5878 24.3296 15.5056 25.3314C15.0745 25.7487 14.6434 26.1522 14.2123 26.5L14.2262 26.4861ZM24.7955 23.0079C25.2266 25.7209 24.8651 27.627 23.7942 28.2392C22.7234 28.8514 20.8877 28.2113 18.7599 26.4861C18.3288 26.1383 17.8977 25.7348 17.4665 25.3174C18.3983 24.3157 19.3023 23.1887 20.1645 21.9644C21.6804 21.8253 23.1128 21.6027 24.42 21.2966C24.573 21.8809 24.6982 22.4653 24.7816 23.0079H24.7955ZM25.3935 19.5992C24.9902 18.3053 24.4618 16.9557 23.8359 15.5783C24.4757 14.187 24.9902 12.8374 25.3935 11.5574C28.9537 12.5731 31.0954 14.1174 31.0954 15.5783C31.0954 17.0392 28.9537 18.5835 25.3935 19.5992Z" fill="#61DAFB"/>
</g>
<defs>
<clipPath id="clip0_3296_3805">
<rect width="32" height="32" fill="white" transform="translate(0.5)"/>
</clipPath>
</defs>
</svg>
