<svg width="60" height="60" viewBox="0 0 60 60" fill="none" xmlns="http://www.w3.org/2000/svg">
<path fill-rule="evenodd" clip-rule="evenodd" d="M56.7991 17.769L51.8363 24.7081L46.8735 17.769H49.5794C49.3731 12.6132 45.1141 8.48858 39.9086 8.48858C35.5161 8.48858 31.791 11.4365 30.614 15.452C29.1822 14.991 27.7019 14.6998 26.1973 14.5664C26.3671 13.9234 26.5856 13.2804 26.8525 12.6618C27.5684 10.9755 28.5877 9.45909 29.886 8.16104C31.1843 6.86299 32.7011 5.83183 34.3877 5.12821C36.135 4.37607 37.9915 4 39.9086 4C41.8258 4 43.6823 4.37607 45.4296 5.11608C47.1162 5.83183 48.6329 6.85086 49.9312 8.14891C51.2296 9.44696 52.2488 10.9634 52.9647 12.6496C53.6564 14.2752 54.0325 15.9979 54.0689 17.769H56.7991Z" fill="white"/>
<path fill-rule="evenodd" clip-rule="evenodd" d="M49.8682 56.4091V53.4248H32.7594C32.8807 53.3642 33.0021 53.3157 33.1234 53.255C34.9799 52.3694 36.6908 51.2169 38.2197 49.8097C38.4259 49.6156 38.6201 49.4336 38.8021 49.2517C39.0084 49.0454 39.2268 48.8271 39.4331 48.5966C39.6757 48.3297 39.9184 48.0507 40.1368 47.7717H49.8682V44.7874L57.998 50.5982L49.8682 56.4091Z" fill="white"/>
<path fill-rule="evenodd" clip-rule="evenodd" d="M43.5587 34.8508C43.5587 37.4347 43.0491 39.9459 42.0541 42.3115C41.2047 44.3253 40.0156 46.1693 38.5353 47.7827C38.3411 47.989 38.147 48.1952 37.9528 48.4014C37.7708 48.5834 37.5888 48.7532 37.4068 48.9352C35.975 50.2575 34.3733 51.3372 32.626 52.1743C32.3834 52.2956 32.1286 52.4048 31.8737 52.514C31.8616 52.514 31.8616 52.5261 31.8495 52.5261C30.3934 53.1448 28.8281 53.4481 27.2386 53.4481H2V47.807H25.4306C32.5168 47.807 38.329 42.1417 38.4261 35.057C38.4261 34.9963 38.4261 34.9357 38.4261 34.875C38.4261 27.1353 32.1407 20.8512 24.3992 20.8512C16.6578 20.827 10.3724 27.0989 10.3724 34.8508H13.6243L7.81215 42.9787L2 34.8508H5.25189C5.25189 32.2668 5.76152 29.7556 6.7565 27.39C7.72722 25.1093 9.09835 23.0591 10.8578 21.3001C12.6172 19.5411 14.6678 18.1581 16.949 17.1997C19.3151 16.2049 21.8268 15.6954 24.4114 15.6954C24.9331 15.6954 25.4428 15.7197 25.9524 15.7561C27.457 15.8774 28.9252 16.1686 30.357 16.6417C30.8666 16.8115 31.3641 16.9935 31.8616 17.2118C34.1428 18.1824 36.1934 19.5532 37.9528 21.3122C39.7123 23.0713 41.0955 25.1215 42.0541 27.4021C43.0491 29.7556 43.5587 32.2668 43.5587 34.8508Z" fill="white"/>
</svg>
