<svg width="64" height="64" viewBox="0 0 64 64" fill="none" xmlns="http://www.w3.org/2000/svg">
<path d="M59.8981 8.45657C59.4907 6.31742 57.8354 4.58572 55.7217 4.12733C55.6198 4.10186 55.518 4.10186 55.3906 4.0764C55.3652 4.0764 55.3397 4.02547 55.3142 4H8.60937C8.5839 4.02547 8.55844 4.0764 8.5075 4.0764C6.39382 4.43292 4.61119 6.11369 4.12733 8.25284C4.10186 8.32924 4.05093 8.4311 4 8.53297V55.3652C4.02547 55.4161 4.0764 55.4416 4.0764 55.4925C4.58572 57.8354 6.01182 59.2869 8.32924 59.8727C8.40564 59.8981 8.45657 59.9491 8.5075 60H55.3906C55.4416 59.9745 55.467 59.9236 55.518 59.8981C57.8354 59.3633 59.2615 57.9627 59.8472 55.6453C59.8727 55.5689 59.8472 55.467 59.8727 55.3906C59.8727 55.3652 59.9236 55.3397 59.9491 55.3142V8.60937C59.9491 8.55844 59.8981 8.53297 59.8981 8.45657ZM36.4693 35.0432H36.1892C34.0755 35.0432 31.9363 35.0432 29.8226 35.0432C29.7208 35.0432 29.6189 35.0432 29.5171 35.0432C29.5171 35.0687 29.4916 35.0687 29.4916 35.0941C29.4916 35.196 29.4916 35.2979 29.4916 35.3997V55.0341H23.9145V35.0687H16.9113V30.6121H36.4438V35.0432H36.4693ZM55.2633 48.362C55.2124 49.2278 55.085 50.0682 54.7285 50.8831C54.6267 51.1378 54.5503 51.367 54.4229 51.6216C53.9645 52.5894 53.2006 53.2769 52.3092 53.8372C51.2906 54.4739 50.1701 54.8304 48.9986 55.0596C47.6999 55.3142 46.4011 55.3906 45.0769 55.3397C44.4402 55.3142 43.8036 55.3142 43.1669 55.2378C41.6644 55.0596 40.1874 54.7285 38.8122 54.0664C38.7358 54.0409 38.6339 53.9136 38.6339 53.8372C38.6339 52.1819 38.6339 50.5266 38.6339 48.8713C38.6339 48.8458 38.6339 48.8204 38.6339 48.7694C39.0414 49.0496 39.4488 49.3297 39.8563 49.5589C40.8495 50.1446 41.9445 50.5521 43.065 50.8067C44.0327 51.0359 45.0005 51.0614 45.9682 51.0105C46.7067 50.985 47.4452 50.8067 48.1073 50.4757C48.693 50.1701 49.1769 49.7626 49.3042 49.075C49.4316 48.4638 49.3806 47.8527 49.0241 47.3179C48.5148 46.5539 47.8017 46.07 47.0123 45.6626C46.121 45.2296 45.2297 44.8477 44.3129 44.4402C42.9632 43.829 41.6389 43.1669 40.5439 42.1483C39.6526 41.3079 38.9905 40.3147 38.6849 39.1178C38.5066 38.4047 38.4557 37.6917 38.4811 36.9786C38.5066 35.2215 39.1432 33.719 40.3911 32.4711C41.4097 31.4525 42.6576 30.8413 44.0327 30.4848C44.975 30.2556 45.9172 30.0773 46.8849 30.0518C47.5725 30.0518 48.2601 29.9754 48.9222 30.0009C49.9664 30.0264 50.985 30.0773 52.0036 30.332C52.6658 30.5102 53.3533 30.6885 54.0155 30.8413C54.1428 30.8668 54.1937 30.9432 54.1937 31.096C54.1937 32.6749 54.1937 34.2792 54.1937 35.8581C54.1937 35.909 54.1937 35.96 54.1683 36.0364C53.9645 35.909 53.7863 35.8072 53.608 35.7053C52.7931 35.2469 51.9272 34.9413 51.0359 34.7121C50.0428 34.4829 49.0496 34.3301 48.0309 34.3556C47.3433 34.3811 46.6303 34.4829 45.9936 34.7121C45.2042 34.9923 44.5675 35.4507 44.2874 36.291C44.0582 36.9532 44.2365 37.5134 44.6439 38.0482C45.1533 38.7103 45.8408 39.1687 46.5794 39.5252C47.5725 40.0091 48.5912 40.4166 49.5589 40.8749C50.6794 41.4097 51.7999 41.9445 52.7422 42.734C53.5571 43.4216 54.2956 44.1855 54.7031 45.2042C54.9322 45.8154 55.136 46.452 55.136 47.1396C55.2378 47.5471 55.2888 47.9545 55.2633 48.362Z" fill="white"/>
</svg>
