<svg width="24" height="24" viewBox="0 0 24 24" fill="none" xmlns="http://www.w3.org/2000/svg">
<path d="M23.9782 1.90996C23.8034 0.993179 23.0933 0.251023 22.1866 0.0545703C22.1429 0.0436562 22.0992 0.0436562 22.0446 0.0327422C22.0337 0.0327422 22.0228 0.0109141 22.0118 0H1.97724C1.96632 0.0109141 1.95539 0.0327422 1.93355 0.0327422C1.02685 0.185539 0.262176 0.905866 0.0546199 1.82265C0.0436959 1.85539 0.021848 1.89904 0 1.9427V22.0136C0.010924 22.0355 0.032772 22.0464 0.032772 22.0682C0.251252 23.0723 0.862995 23.6944 1.85708 23.9454C1.88985 23.9563 1.9117 23.9782 1.93355 24H22.0446C22.0665 23.9891 22.0774 23.9673 22.0992 23.9563C23.0933 23.7271 23.7051 23.1269 23.9563 22.1337C23.9672 22.101 23.9563 22.0573 23.9672 22.0246C23.9672 22.0136 23.9891 22.0027 24 21.9918V1.97544C24 1.95362 23.9782 1.9427 23.9782 1.90996ZM13.9281 13.3042H13.8079C12.9012 13.3042 11.9836 13.3042 11.0769 13.3042C11.0332 13.3042 10.9895 13.3042 10.9458 13.3042C10.9458 13.3151 10.9349 13.3151 10.9349 13.3261C10.9349 13.3697 10.9349 13.4134 10.9349 13.457V21.8718H8.54256V13.3151H5.53846V11.4052H13.9172V13.3042H13.9281ZM21.99 19.0123C21.9681 19.3834 21.9135 19.7435 21.7606 20.0928C21.7169 20.2019 21.6841 20.3001 21.6295 20.4093C21.4329 20.824 21.1051 21.1187 20.7228 21.3588C20.2858 21.6317 19.8052 21.7844 19.3027 21.8827C18.7456 21.9918 18.1884 22.0246 17.6204 22.0027C17.3473 21.9918 17.0742 21.9918 16.8011 21.9591C16.1566 21.8827 15.523 21.7408 14.9331 21.457C14.9003 21.4461 14.8566 21.3915 14.8566 21.3588C14.8566 20.6494 14.8566 19.94 14.8566 19.2306C14.8566 19.2196 14.8566 19.2087 14.8566 19.1869C15.0314 19.307 15.2062 19.427 15.381 19.5252C15.807 19.7763 16.2767 19.9509 16.7574 20.06C17.1725 20.1583 17.5876 20.1692 18.0027 20.1473C18.3195 20.1364 18.6363 20.06 18.9203 19.9181C19.1716 19.7872 19.3792 19.6126 19.4338 19.3179C19.4884 19.0559 19.4665 18.794 19.3136 18.5648C19.0951 18.2374 18.7893 18.03 18.4506 17.8554C18.0683 17.6699 17.6859 17.5061 17.2927 17.3315C16.7137 17.0696 16.1457 16.7858 15.6759 16.3493C15.2936 15.9891 15.0096 15.5634 14.8785 15.0505C14.802 14.7449 14.7802 14.4393 14.7911 14.1337C14.802 13.3806 15.0751 12.7367 15.6104 12.2019C16.0473 11.7653 16.5826 11.5034 17.1725 11.3506C17.5767 11.2524 17.9809 11.176 18.396 11.1651C18.6909 11.1651 18.9859 11.1323 19.2699 11.1432C19.7178 11.1542 20.1548 11.176 20.5917 11.2851C20.8757 11.3615 21.1707 11.4379 21.4547 11.5034C21.5093 11.5143 21.5312 11.5471 21.5312 11.6126C21.5312 12.2892 21.5312 12.9768 21.5312 13.6535C21.5312 13.6753 21.5312 13.6971 21.5203 13.7299C21.4329 13.6753 21.3564 13.6317 21.2799 13.588C20.9304 13.3915 20.5589 13.2606 20.1766 13.1623C19.7506 13.0641 19.3245 12.9986 18.8876 13.0096C18.5926 13.0205 18.2868 13.0641 18.0137 13.1623C17.675 13.2824 17.4019 13.4789 17.2817 13.839C17.1834 14.1228 17.2599 14.3629 17.4347 14.5921C17.6532 14.8759 17.9481 15.0723 18.2649 15.2251C18.6909 15.4325 19.1279 15.6071 19.543 15.8035C20.0237 16.0327 20.5043 16.2619 20.9085 16.6003C21.2581 16.895 21.5749 17.2224 21.7497 17.6589C21.848 17.9209 21.9354 18.1937 21.9354 18.4884C21.9791 18.663 22.0009 18.8377 21.99 19.0123Z" fill="#3DCFB6"/>
</svg>
